<svg width="22" height="22" viewBox="0 0 22 22" fill="none" xmlns="http://www.w3.org/2000/svg">
<path d="M15.8087 8.51656C15.6369 8.34583 15.4046 8.25 15.1624 8.25C14.9202 8.25 14.6879 8.34583 14.5162 8.51656L11.2253 11.7616L7.98034 8.51656C7.80859 8.34583 7.57626 8.25 7.33409 8.25C7.09192 8.25 6.85958 8.34583 6.68784 8.51656C6.60192 8.60178 6.53372 8.70316 6.48718 8.81486C6.44065 8.92657 6.41669 9.04638 6.41669 9.16739C6.41669 9.2884 6.44065 9.40822 6.48718 9.51992C6.53372 9.63163 6.60192 9.73301 6.68784 9.81823L10.5745 13.7049C10.6597 13.7908 10.7611 13.859 10.8728 13.9055C10.9845 13.9521 11.1043 13.976 11.2253 13.976C11.3463 13.976 11.4662 13.9521 11.5779 13.9055C11.6896 13.859 11.791 13.7908 11.8762 13.7049L15.8087 9.81823C15.8946 9.73301 15.9628 9.63163 16.0093 9.51992C16.0559 9.40822 16.0798 9.2884 16.0798 9.16739C16.0798 9.04638 16.0559 8.92657 16.0093 8.81486C15.9628 8.70316 15.8946 8.60178 15.8087 8.51656Z" fill="#E6E7EF"/>
</svg>
