<svg width="22" height="22" viewBox="0 0 22 22" fill="none" xmlns="http://www.w3.org/2000/svg">
<path d="M19.8207 6.798V1.1C19.8207 0.808262 19.7046 0.528472 19.4978 0.322183C19.291 0.115892 19.0106 0 18.7182 0C18.4257 0 18.1453 0.115892 17.9385 0.322183C17.7317 0.528472 17.6156 0.808262 17.6156 1.1V6.798C16.977 7.02923 16.4253 7.45099 16.0354 8.00598C15.6455 8.56097 15.4363 9.22227 15.4363 9.9C15.4363 10.5777 15.6455 11.239 16.0354 11.794C16.4253 12.349 16.977 12.7708 17.6156 13.002V20.9C17.6156 21.1917 17.7317 21.4715 17.9385 21.6778C18.1453 21.8841 18.4257 22 18.7182 22C19.0106 22 19.291 21.8841 19.4978 21.6778C19.7046 21.4715 19.8207 21.1917 19.8207 20.9V13.002C20.4593 12.7708 21.011 12.349 21.4009 11.794C21.7908 11.239 22 10.5777 22 9.9C22 9.22227 21.7908 8.56097 21.4009 8.00598C21.011 7.45099 20.4593 7.02923 19.8207 6.798ZM18.7182 11C18.5001 11 18.2869 10.9355 18.1056 10.8146C17.9243 10.6937 17.7829 10.522 17.6995 10.321C17.616 10.12 17.5942 9.89878 17.6367 9.6854C17.6793 9.47202 17.7843 9.27602 17.9385 9.12218C18.0927 8.96835 18.2892 8.86358 18.503 8.82114C18.7169 8.77869 18.9386 8.80048 19.1401 8.88373C19.3416 8.96699 19.5138 9.10798 19.6349 9.28887C19.7561 9.46977 19.8207 9.68244 19.8207 9.9C19.8207 10.1917 19.7046 10.4715 19.4978 10.6778C19.291 10.8841 19.0106 11 18.7182 11ZM12.1026 13.398V1.1C12.1026 0.808262 11.9864 0.528472 11.7797 0.322183C11.5729 0.115892 11.2924 0 11 0C10.7076 0 10.4271 0.115892 10.2203 0.322183C10.0136 0.528472 9.89741 0.808262 9.89741 1.1V13.398C9.25884 13.6292 8.70711 14.051 8.31721 14.606C7.92732 15.161 7.71816 15.8223 7.71816 16.5C7.71816 17.1777 7.92732 17.839 8.31721 18.394C8.70711 18.949 9.25884 19.3708 9.89741 19.602V20.9C9.89741 21.1917 10.0136 21.4715 10.2203 21.6778C10.4271 21.8841 10.7076 22 11 22C11.2924 22 11.5729 21.8841 11.7797 21.6778C11.9864 21.4715 12.1026 21.1917 12.1026 20.9V19.602C12.7412 19.3708 13.2929 18.949 13.6828 18.394C14.0727 17.839 14.2818 17.1777 14.2818 16.5C14.2818 15.8223 14.0727 15.161 13.6828 14.606C13.2929 14.051 12.7412 13.6292 12.1026 13.398ZM11 17.6C10.7819 17.6 10.5688 17.5355 10.3874 17.4146C10.2061 17.2937 10.0648 17.122 9.98134 16.921C9.89788 16.72 9.87605 16.4988 9.91859 16.2854C9.96114 16.072 10.0661 15.876 10.2203 15.7222C10.3745 15.5683 10.571 15.4636 10.7849 15.4211C10.9988 15.3787 11.2205 15.4005 11.4219 15.4837C11.6234 15.567 11.7956 15.708 11.9168 15.8889C12.0379 16.0698 12.1026 16.2824 12.1026 16.5C12.1026 16.7917 11.9864 17.0715 11.7797 17.2778C11.5729 17.4841 11.2924 17.6 11 17.6ZM4.38444 4.598V1.1C4.38444 0.808262 4.26827 0.528472 4.0615 0.322183C3.85472 0.115892 3.57427 0 3.28184 0C2.98942 0 2.70897 0.115892 2.50219 0.322183C2.29542 0.528472 2.17925 0.808262 2.17925 1.1V4.598C1.54068 4.82922 0.988957 5.25099 0.599059 5.80598C0.209162 6.36097 0 7.02227 0 7.7C0 8.37773 0.209162 9.03903 0.599059 9.59402C0.988957 10.149 1.54068 10.5708 2.17925 10.802V20.9C2.17925 21.1917 2.29542 21.4715 2.50219 21.6778C2.70897 21.8841 2.98942 22 3.28184 22C3.57427 22 3.85472 21.8841 4.0615 21.6778C4.26827 21.4715 4.38444 21.1917 4.38444 20.9V10.802C5.02301 10.5708 5.57473 10.149 5.96463 9.59402C6.35453 9.03903 6.56369 8.37773 6.56369 7.7C6.56369 7.02227 6.35453 6.36097 5.96463 5.80598C5.57473 5.25099 5.02301 4.82922 4.38444 4.598ZM3.28184 8.8C3.06377 8.8 2.8506 8.73549 2.66928 8.61462C2.48796 8.49375 2.34663 8.32195 2.26318 8.12095C2.17973 7.91995 2.15789 7.69878 2.20044 7.4854C2.24298 7.27202 2.34799 7.07602 2.50219 6.92218C2.65639 6.76835 2.85286 6.66358 3.06674 6.62114C3.28062 6.57869 3.50232 6.60048 3.70379 6.68373C3.90526 6.76699 4.07746 6.90798 4.19862 7.08887C4.31977 7.26977 4.38444 7.48244 4.38444 7.7C4.38444 7.99174 4.26827 8.27153 4.0615 8.47782C3.85472 8.68411 3.57427 8.8 3.28184 8.8Z" fill="#F2F2F4"/>
</svg>
